<svg width="29" height="32" viewBox="0 0 29 32" fill="none" xmlns="http://www.w3.org/2000/svg">
<path d="M8.552 25.3769C6.98413 25.3769 5.71559 26.8043 5.71559 28.549C5.71559 30.2936 6.98413 31.7211 8.552 31.7211C10.1199 31.7211 11.4027 30.2936 11.4027 28.549C11.4027 26.8043 10.1199 25.3769 8.552 25.3769ZM0 0V3.17211H2.85067L7.98187 15.2103L6.05767 19.0961C5.82961 19.5402 5.70133 20.0636 5.70133 20.6187C5.70133 22.3634 6.98413 23.7908 8.552 23.7908H25.656V20.6187H9.15064C8.95109 20.6187 8.79431 20.4442 8.79431 20.2222L8.83707 20.0319L10.1199 17.4466H20.7386C21.8076 17.4466 22.7483 16.7963 23.2329 15.813L28.3356 5.51947C28.4497 5.29742 28.5067 5.02779 28.5067 4.75816C28.5067 3.88583 27.8653 3.17211 27.0813 3.17211H6.00065L4.66084 0H0ZM22.8053 25.3769C21.2375 25.3769 19.9689 26.8043 19.9689 28.549C19.9689 30.2936 21.2375 31.7211 22.8053 31.7211C24.3732 31.7211 25.656 30.2936 25.656 28.549C25.656 26.8043 24.3732 25.3769 22.8053 25.3769Z" fill="#F5F5F5"/>
</svg>
