<svg width="56" height="61" viewBox="0 0 56 61" fill="none" xmlns="http://www.w3.org/2000/svg">
<path d="M15.6652 12.0897C16.0831 9.34566 18.572 7.50948 21.2528 8.30234C31.7567 11.4081 40.4894 17.2787 46.664 26.2506C48.4166 28.7948 47.4931 32.0873 45.0851 33.3274L44.4313 33.6658L43.6526 32.3447L43.6385 32.3233C37.7853 23.1706 28.3103 16.4202 17.5301 13.9619L15.4523 13.4881L15.6652 12.0897ZM15.071 15.9916L10.8779 43.525C10.4077 46.6124 13.4924 49.1465 16.1329 47.8376L20.4261 45.7101L20.4253 45.7152C20.3241 46.3798 20.4784 47.0745 20.8542 47.6465C21.23 48.2185 21.7965 48.6209 22.4292 48.7652C23.0619 48.9094 23.7089 48.7838 24.2278 48.4158C24.7468 48.0479 25.0952 47.4678 25.1964 46.8032L25.9604 41.7861C26.0112 41.4689 26.1749 41.1908 26.4184 41.0079C26.6618 40.8251 26.9668 40.7512 27.2716 40.8013C27.5764 40.8513 27.8583 41.0216 28.0602 41.2776C28.262 41.5336 28.3688 41.8562 28.3589 42.1801L28.1452 43.5835C28.044 44.2481 28.1983 44.9428 28.5741 45.5148C28.9499 46.0868 29.5164 46.4892 30.1491 46.6335C30.7818 46.7778 31.4288 46.6521 31.9477 46.2842C32.4667 45.9162 32.8151 45.3361 32.9163 44.6715L33.7704 39.063C35.9694 37.9957 39.3435 36.2784 42.2993 34.764L41.6505 33.6592C36.1881 25.1323 27.3088 18.7823 17.1464 16.4649L15.071 15.9916ZM24.1583 25.1739C24.1207 25.4199 24.0373 25.6529 23.913 25.8596C23.7886 26.0664 23.6257 26.2428 23.4335 26.3789C23.2414 26.5149 23.0237 26.6079 22.793 26.6525C22.5623 26.6972 22.323 26.6926 22.0888 26.639C21.8547 26.5854 21.6303 26.484 21.4283 26.3403C21.2264 26.1967 21.0509 26.0138 20.912 25.802C20.773 25.5902 20.6733 25.3537 20.6184 25.106C20.5636 24.8582 20.5547 24.6041 20.5923 24.3582C20.668 23.8613 20.9284 23.4277 21.3163 23.1527C21.7042 22.8776 22.1879 22.7837 22.6608 22.8916C23.1337 22.9994 23.5572 23.3002 23.8381 23.7278C24.119 24.1553 24.2344 24.6746 24.1587 25.1714L24.1583 25.1739ZM30.492 31.8043C30.4163 32.3011 30.1559 32.7348 29.768 33.0098C29.3801 33.2849 28.8965 33.3788 28.4235 33.2709C27.9506 33.1631 27.5271 32.8623 27.2462 32.4347C26.9653 32.0072 26.85 31.4879 26.9256 30.9911C27.0013 30.4942 27.2617 30.0606 27.6496 29.7856C28.0375 29.5105 28.5212 29.4166 28.9941 29.5245C29.467 29.6323 29.8905 29.9331 30.1714 30.3607C30.4523 30.7882 30.5677 31.3075 30.492 31.8043ZM22.4592 36.4603C22.3832 36.9598 22.1214 37.3957 21.7314 37.6722C21.3414 37.9487 20.8552 38.0432 20.3797 37.9347C19.9043 37.8263 19.4785 37.5239 19.1961 37.0941C18.9137 36.6642 18.7977 36.1421 18.8738 35.6427C18.9499 35.1432 19.2117 34.7073 19.6017 34.4307C19.9917 34.1542 20.4779 34.0598 20.9533 34.1682C21.4288 34.2767 21.8546 34.579 22.137 35.0089C22.4194 35.4387 22.5353 35.9608 22.4592 36.4603Z" fill="white"/>
</svg>
