<svg width="56" height="61" viewBox="0 0 56 61" fill="none" xmlns="http://www.w3.org/2000/svg">
<path d="M15.6651 12.0898C16.083 9.34569 18.5718 7.50951 21.2527 8.30237C31.7566 11.4082 40.4893 17.2788 46.6638 26.2507C48.4165 28.7948 47.4929 32.0874 45.085 33.3275L44.4312 33.6658L43.6524 32.3447L43.6384 32.3234C37.7851 23.1706 28.3102 16.4203 17.53 13.9619L15.4522 13.4881L15.6651 12.0898ZM15.0709 15.9916L10.8778 43.525C10.4076 46.6124 13.4923 49.1465 16.1328 47.8376L20.426 45.7102L20.4252 45.7152C20.324 46.3798 20.4782 47.0745 20.854 47.6465C21.2298 48.2185 21.7964 48.6209 22.4291 48.7652C23.0618 48.9095 23.7088 48.7838 24.2277 48.4159C24.7466 48.0479 25.0951 47.4678 25.1963 46.8032L25.9603 41.7862C26.0111 41.469 26.1748 41.1908 26.4182 41.0079C26.6617 40.8251 26.9667 40.7512 27.2715 40.8013C27.5763 40.8514 27.8582 41.0216 28.06 41.2776C28.2619 41.5336 28.3687 41.8562 28.3588 42.1801L28.1451 43.5835C28.0439 44.2481 28.1981 44.9429 28.5739 45.5148C28.9498 46.0868 29.5163 46.4892 30.149 46.6335C30.7817 46.7778 31.4287 46.6521 31.9476 46.2842C32.4666 45.9162 32.815 45.3361 32.9162 44.6715L33.7703 39.0631C35.9692 37.9957 39.3434 36.2785 42.2991 34.764L41.6503 33.6592C36.188 25.1323 27.3087 18.7823 17.1463 16.4649L15.0709 15.9916ZM24.1582 25.174C24.1206 25.4199 24.0372 25.6529 23.9128 25.8597C23.7885 26.0664 23.6256 26.2428 23.4334 26.3789C23.2412 26.5149 23.0236 26.6079 22.7929 26.6526C22.5621 26.6972 22.3229 26.6926 22.0887 26.639C21.8546 26.5855 21.6301 26.484 21.4282 26.3404C21.2263 26.1968 21.0508 26.0138 20.9119 25.802C20.7729 25.5902 20.6731 25.3537 20.6183 25.106C20.5634 24.8582 20.5546 24.6041 20.5922 24.3582C20.6679 23.8614 20.9283 23.4277 21.3162 23.1527C21.7041 22.8777 22.1877 22.7837 22.6607 22.8916C23.1336 22.9994 23.5571 23.3002 23.838 23.7278C24.1189 24.1553 24.2342 24.6746 24.1586 25.1715L24.1582 25.174ZM30.4919 31.8044C30.4162 32.3012 30.1558 32.7348 29.7679 33.0098C29.38 33.2849 28.8963 33.3788 28.4234 33.271C27.9505 33.1631 27.527 32.8623 27.2461 32.4348C26.9652 32.0072 26.8498 31.4879 26.9255 30.9911C27.0012 30.4943 27.2616 30.0607 27.6495 29.7856C28.0374 29.5106 28.521 29.4166 28.994 29.5245C29.4669 29.6323 29.8904 29.9331 30.1713 30.3607C30.4522 30.7882 30.5675 31.3076 30.4919 31.8044ZM22.4591 36.4603C22.3831 36.9598 22.1212 37.3957 21.7312 37.6723C21.3413 37.9488 20.8551 38.0432 20.3796 37.9348C19.9041 37.8264 19.4784 37.524 19.1959 37.0941C18.9135 36.6643 18.7976 36.1422 18.8737 35.6427C18.9497 35.1432 19.2116 34.7073 19.6015 34.4308C19.9915 34.1543 20.4777 34.0598 20.9532 34.1683C21.4287 34.2767 21.8544 34.5791 22.1369 35.0089C22.4193 35.4388 22.5352 35.9609 22.4591 36.4603Z" fill="url(#paint0_linear_243_14)"/>
<path d="M15.6651 12.0898C16.083 9.34569 18.5718 7.50951 21.2527 8.30237C31.7566 11.4082 40.4893 17.2788 46.6638 26.2507C48.4165 28.7948 47.4929 32.0874 45.085 33.3275L44.4312 33.6658L43.6524 32.3447L43.6384 32.3234C37.7851 23.1706 28.3102 16.4203 17.53 13.9619L15.4522 13.4881L15.6651 12.0898ZM15.0709 15.9916L10.8778 43.525C10.4076 46.6124 13.4923 49.1465 16.1328 47.8376L20.426 45.7102L20.4252 45.7152C20.324 46.3798 20.4782 47.0745 20.854 47.6465C21.2298 48.2185 21.7964 48.6209 22.4291 48.7652C23.0618 48.9095 23.7088 48.7838 24.2277 48.4159C24.7466 48.0479 25.0951 47.4678 25.1963 46.8032L25.9603 41.7862C26.0111 41.469 26.1748 41.1908 26.4182 41.0079C26.6617 40.8251 26.9667 40.7512 27.2715 40.8013C27.5763 40.8514 27.8582 41.0216 28.06 41.2776C28.2619 41.5336 28.3687 41.8562 28.3588 42.1801L28.1451 43.5835C28.0439 44.2481 28.1981 44.9429 28.5739 45.5148C28.9498 46.0868 29.5163 46.4892 30.149 46.6335C30.7817 46.7778 31.4287 46.6521 31.9476 46.2842C32.4666 45.9162 32.815 45.3361 32.9162 44.6715L33.7703 39.0631C35.9692 37.9957 39.3434 36.2785 42.2991 34.764L41.6503 33.6592C36.188 25.1323 27.3087 18.7823 17.1463 16.4649L15.0709 15.9916ZM24.1582 25.174C24.1206 25.4199 24.0372 25.6529 23.9128 25.8597C23.7885 26.0664 23.6256 26.2428 23.4334 26.3789C23.2412 26.5149 23.0236 26.6079 22.7929 26.6526C22.5621 26.6972 22.3229 26.6926 22.0887 26.639C21.8546 26.5855 21.6301 26.484 21.4282 26.3404C21.2263 26.1968 21.0508 26.0138 20.9119 25.802C20.7729 25.5902 20.6731 25.3537 20.6183 25.106C20.5634 24.8582 20.5546 24.6041 20.5922 24.3582C20.6679 23.8614 20.9283 23.4277 21.3162 23.1527C21.7041 22.8777 22.1877 22.7837 22.6607 22.8916C23.1336 22.9994 23.5571 23.3002 23.838 23.7278C24.1189 24.1553 24.2342 24.6746 24.1586 25.1715L24.1582 25.174ZM30.4919 31.8044C30.4162 32.3012 30.1558 32.7348 29.7679 33.0098C29.38 33.2849 28.8963 33.3788 28.4234 33.271C27.9505 33.1631 27.527 32.8623 27.2461 32.4348C26.9652 32.0072 26.8498 31.4879 26.9255 30.9911C27.0012 30.4943 27.2616 30.0607 27.6495 29.7856C28.0374 29.5106 28.521 29.4166 28.994 29.5245C29.4669 29.6323 29.8904 29.9331 30.1713 30.3607C30.4522 30.7882 30.5675 31.3076 30.4919 31.8044ZM22.4591 36.4603C22.3831 36.9598 22.1212 37.3957 21.7312 37.6723C21.3413 37.9488 20.8551 38.0432 20.3796 37.9348C19.9041 37.8264 19.4784 37.524 19.1959 37.0941C18.9135 36.6643 18.7976 36.1422 18.8737 35.6427C18.9497 35.1432 19.2116 34.7073 19.6015 34.4308C19.9915 34.1543 20.4777 34.0598 20.9532 34.1683C21.4287 34.2767 21.8544 34.5791 22.1369 35.0089C22.4193 35.4388 22.5352 35.9609 22.4591 36.4603Z" fill="white" fill-opacity="0.2"/>
<defs>
<linearGradient id="paint0_linear_243_14" x1="34.8266" y1="-0.272295" x2="21.6451" y2="57.5307" gradientUnits="userSpaceOnUse">
<stop stop-color="#FF003A"/>
<stop offset="1" stop-color="#FF7900"/>
</linearGradient>
</defs>
</svg>
