<svg width="34" height="36" viewBox="0 0 34 36" fill="none" xmlns="http://www.w3.org/2000/svg">
<path d="M17 0C13.6965 0.00655052 10.4662 1.01556 7.70243 2.90414C4.93867 4.79271 2.76078 7.47933 1.43403 10.6368C0.107291 13.7942 -0.311041 17.2861 0.229992 20.6873C0.771024 24.0884 2.24807 27.252 4.48122 29.7926C6.07617 31.597 8.01193 33.037 10.1665 34.0219C12.3211 35.0068 14.6478 35.5153 17 35.5153C19.3522 35.5153 21.6789 35.0068 23.8335 34.0219C25.9881 33.037 27.9238 31.597 29.5188 29.7926C31.7519 27.252 33.229 24.0884 33.77 20.6873C34.311 17.2861 33.8927 13.7942 32.566 10.6368C31.2392 7.47933 29.0613 4.79271 26.2976 2.90414C23.5338 1.01556 20.3035 0.00655052 17 0ZM17 31.9968C13.4717 31.9912 10.083 30.5575 7.54704 27.9972C8.31698 26.041 9.62675 24.3679 11.3099 23.1904C12.9931 22.0129 14.9737 21.3842 17 21.3842C19.0263 21.3842 21.0069 22.0129 22.6901 23.1904C24.3732 24.3679 25.683 26.041 26.453 27.9972C23.917 30.5575 20.5283 31.9912 17 31.9968ZM13.5935 14.2208C13.5935 13.5177 13.7933 12.8303 14.1676 12.2457C14.5419 11.661 15.0739 11.2053 15.6964 10.9362C16.3188 10.6672 17.0038 10.5967 17.6646 10.7339C18.3254 10.8711 18.9323 11.2097 19.4087 11.7069C19.8851 12.2041 20.2096 12.8376 20.341 13.5272C20.4725 14.2169 20.405 14.9317 20.1472 15.5813C19.8893 16.231 19.4527 16.7862 18.8925 17.1769C18.3323 17.5675 17.6737 17.776 17 17.776C16.0965 17.776 15.2301 17.4015 14.5913 16.7347C13.9524 16.068 13.5935 15.1637 13.5935 14.2208ZM28.7694 24.8864C27.2476 22.1698 24.9054 20.0567 22.1097 18.8781C22.9769 17.8518 23.542 16.5862 23.7371 15.233C23.9322 13.8799 23.749 12.4967 23.2096 11.2495C22.6701 10.0024 21.7973 8.94411 20.6959 8.20179C19.5944 7.45948 18.3111 7.06463 17 7.06463C15.6889 7.06463 14.4056 7.45948 13.3041 8.20179C12.2027 8.94411 11.3299 10.0024 10.7904 11.2495C10.251 12.4967 10.0678 13.8799 10.2629 15.233C10.458 16.5862 11.0231 17.8518 11.8903 18.8781C9.0946 20.0567 6.75243 22.1698 5.23064 24.8864C4.01785 22.7304 3.37705 20.2762 3.37412 17.776C3.37412 14.0044 4.8097 10.3873 7.36505 7.72039C9.92039 5.05346 13.3862 3.5552 17 3.5552C20.6138 3.5552 24.0796 5.05346 26.635 7.72039C29.1903 10.3873 30.6259 14.0044 30.6259 17.776C30.6229 20.2762 29.9822 22.7304 28.7694 24.8864Z" fill="#F5F5F5"/>
</svg>
